<svg xmlns="http://www.w3.org/2000/svg">
    <symbol id="x-icon" viewBox="0 0 19 19">
        <path fill="#08060d" fill-rule="evenodd"
              d="M1.893 1.98c.052.072 1.245 1.769 2.653 3.77l2.892 4.114c.183.261.333.48.333.486s-.068.089-.152.183l-.522.593-.765.867-3.597 4.087c-.375.426-.734.834-.798.905a1 1 0 0 0-.118.148c0 .01.236.017.664.017h.663l.729-.83c.4-.457.796-.906.879-.999a692 692 0 0 0 1.794-2.038c.034-.037.301-.34.594-.675l.551-.624.345-.392a7 7 0 0 1 .34-.374c.006 0 .93 1.306 2.052 2.903l2.084 2.965.045.063h2.275c1.87 0 2.273-.003 2.266-.021-.008-.02-1.098-1.572-3.894-5.547-2.013-2.862-2.28-3.246-2.273-3.266.008-.019.282-.332 2.085-2.38l2-2.274 1.567-1.782c.022-.028-.016-.03-.65-.03h-.674l-.3.342a871 871 0 0 1-1.782 2.025c-.067.075-.405.458-.75.852a100 100 0 0 1-.803.91c-.148.172-.299.344-.99 1.127-.304.343-.32.358-.345.327-.015-.019-.904-1.282-1.976-2.808L6.365 1.85H1.8zm1.782.91 8.078 11.294c.772 1.08 1.413 1.973 1.425 1.984.016.017.241.02 1.05.017l1.03-.004-2.694-3.766L7.796 5.75 5.722 2.852l-1.039-.004-1.039-.004z"
              clip-rule="evenodd"/>
    </symbol>
    <symbol id="switch" viewBox="0 0 15 15">
        <path d="M8.5 14.5H8C8 14.6326 8.05268 14.7598 8.14645 14.8536C8.24021 14.9473 8.36739 15 8.5 15V14.5ZM8.5 2.5V2C8.36739 2 8.24021 2.05268 8.14645 2.14645C8.05268 2.24022 8 2.36739 8 2.5H8.5ZM14.5 11.5H15H14.5ZM11.5 14.5V14V14.5ZM14.5 5.5H14H14.5ZM11.5 2.5V3V2.5ZM6.5 0.500002L7 0.500002C7 0.22386 6.77614 2.32458e-06 6.5 2.14577e-06L6.5 0.500002ZM6.5 12.5V13C6.77614 13 7 12.7761 7 12.5H6.5ZM0.5 3.5H1H0.5ZM3.5 0.5L3.5 1L3.5 0.5ZM3.5 12.5V13V12.5ZM0.5 9.5H0H0.5ZM14 5.5V11.5H15V5.5H14ZM11.5 14H8.5V15H11.5V14ZM9 14.5V2.5H8L8 14.5H9ZM8.5 3L11.5 3V2L8.5 2L8.5 3ZM14 11.5C14 12.8807 12.8807 14 11.5 14V15C13.433 15 15 13.433 15 11.5H14ZM15 5.5C15 3.56701 13.433 2.00001 11.5 2V3C12.8807 3.00001 14 4.11929 14 5.5H15ZM6 0.500002L6 12.5H7L7 0.500002L6 0.500002ZM6.5 12H3.5V13H6.5V12ZM1 9.5L1 3.5H2.68221e-07L0 9.5H1ZM3.5 1L6.5 1L6.5 2.14577e-06L3.5 0L3.5 1ZM1 3.5C1 2.11929 2.11929 0.999999 3.5 1L3.5 0C1.56701 -1.37091e-06 3.57628e-07 1.567 2.68221e-07 3.5H1ZM3.5 12C2.11929 12 1 10.8807 1 9.5H0C-5.96046e-08 11.433 1.567 13 3.5 13V12ZM13 10.5C13 9.67157 12.3284 9 11.5 9V10C11.7761 10 12 10.2239 12 10.5H13ZM11.5 12C12.3284 12 13 11.3284 13 10.5H12C12 10.7761 11.7761 11 11.5 11V12ZM10 10.5C10 11.3284 10.6716 12 11.5 12V11C11.2239 11 11 10.7761 11 10.5H10ZM11 10.5C11 10.2239 11.2239 10 11.5 10V9C10.6716 9 10 9.67157 10 10.5H11ZM3.5 5C3.22386 5 3 4.77614 3 4.5H2C2 5.32843 2.67157 6 3.5 6V5ZM4 4.5C4 4.77614 3.77614 5 3.5 5V6C4.32843 6 5 5.32843 5 4.5H4ZM3.5 4C3.77614 4 4 4.22386 4 4.5H5C5 3.67157 4.32843 3 3.5 3V4ZM3.5 3C2.67157 3 2 3.67157 2 4.5H3C3 4.22386 3.22386 4 3.5 4V3Z"
              fill="currentColor"/>
    </symbol>
    <symbol id="car" viewBox="0 -43.92 122.88 122.88">
        <path class="st0"
              d="M99.42,13.57c5.93,0,10.73,4.8,10.73,10.73c0,5.93-4.8,10.73-10.73,10.73s-10.73-4.8-10.73-10.73 C88.69,18.37,93.49,13.57,99.42,13.57L99.42,13.57z M79.05,5c-0.59,1.27-1.06,2.69-1.42,4.23c-0.82,2.57,0.39,3.11,3.19,2.06 c2.06-1.23,4.12-2.47,6.18-3.7c1.05-0.74,1.55-1.47,1.38-2.19c-0.34-1.42-3.08-2.16-5.33-2.6C80.19,2.23,80.39,2.11,79.05,5 L79.05,5z M23.86,19.31c2.75,0,4.99,2.23,4.99,4.99c0,2.75-2.23,4.99-4.99,4.99c-2.75,0-4.99-2.23-4.99-4.99 C18.87,21.54,21.1,19.31,23.86,19.31L23.86,19.31z M99.42,19.31c2.75,0,4.99,2.23,4.99,4.99c0,2.75-2.23,4.99-4.99,4.99 c-2.75,0-4.99-2.23-4.99-4.99C94.43,21.54,96.66,19.31,99.42,19.31L99.42,19.31z M46.14,12.5c2.77-2.97,5.97-4.9,9.67-6.76 c8.1-4.08,13.06-3.58,21.66-3.58l-2.89,7.5c-1.21,1.6-2.58,2.73-4.66,2.84H46.14L46.14,12.5z M23.86,13.57 c5.93,0,10.73,4.8,10.73,10.73c0,5.93-4.8,10.73-10.73,10.73s-10.73-4.8-10.73-10.73C13.13,18.37,17.93,13.57,23.86,13.57 L23.86,13.57z M40.82,10.3c3.52-2.19,7.35-4.15,11.59-5.82c12.91-5.09,22.78-6,36.32-1.9c4.08,1.55,8.16,3.1,12.24,4.06 c4.03,0.96,21.48,1.88,21.91,4.81l-4.31,5.15c1.57,1.36,2.85,3.03,3.32,5.64c-0.13,1.61-0.57,2.96-1.33,4.04 c-1.29,1.85-5.07,3.76-7.11,2.67c-0.65-0.35-1.02-1.05-1.01-2.24c0.06-23.9-28.79-21.18-26.62,2.82H35.48 C44.8,5.49,5.04,5.4,12.1,28.7C9.62,31.38,3.77,27.34,0,18.75c1.03-1.02,2.16-1.99,3.42-2.89c-0.06-0.05,0.06,0.19-0.15-0.17 c-0.21-0.36,0.51-1.87,1.99-2.74C13.02,8.4,31.73,8.52,40.82,10.3L40.82,10.3z"/>
    </symbol>
    <symbol id="cake" viewBox="0 0 480.801 480.801">
        <path d="M435.557,178.362h-42.831v-62.438c0-5.522-4.477-10-10-10h-13.537V92.81c14.242-4.302,24.644-17.54,24.644-33.165
	c0-15.498-20.199-46.237-26.389-55.29C365.58,1.63,362.491,0,359.189,0s-6.391,1.63-8.254,4.355
	c-6.19,9.052-26.389,39.791-26.389,55.289c0,15.626,10.402,28.863,24.643,33.165v13.115h-13.536c-5.523,0-10,4.478-10,10v62.438
	h-51.716v-62.438c0-5.522-4.477-10-10-10H250.4V92.81c14.241-4.302,24.643-17.54,24.643-33.165
	c0-15.498-20.198-46.237-26.389-55.289C246.791,1.63,243.702,0,240.4,0s-6.391,1.63-8.254,4.355
	c-6.19,9.052-26.389,39.791-26.389,55.289c0,15.626,10.402,28.863,24.643,33.165v13.115h-13.537c-5.523,0-10,4.478-10,10v62.438
	h-51.716v-62.438c0-5.522-4.477-10-10-10h-13.536V92.81c14.241-4.302,24.643-17.54,24.643-33.165
	c0-15.498-20.198-46.237-26.389-55.289C128.002,1.63,124.913,0,121.611,0s-6.391,1.63-8.254,4.354
	c-6.19,9.053-26.389,39.792-26.389,55.29c0,15.626,10.402,28.863,24.644,33.165v13.115H98.075c-5.523,0-10,4.478-10,10v62.438
	H45.244c-19.033,0-34.517,15.484-34.517,34.518v257.921c0,5.522,4.477,10,10,10h439.348c5.523,0,10-4.478,10-10V212.88
	C470.074,193.847,454.59,178.362,435.557,178.362z M344.546,59.645c0-4.707,6.653-17.99,14.643-31.163
	c7.99,13.173,14.644,26.456,14.644,31.163c0,8.074-6.569,14.643-14.644,14.643C351.115,74.287,344.546,67.719,344.546,59.645z
	 M225.757,59.645c0-4.707,6.653-17.99,14.643-31.162c7.99,13.172,14.643,26.455,14.643,31.162c0,8.074-6.569,14.643-14.643,14.643
	S225.757,67.719,225.757,59.645z M106.968,59.645c0-4.707,6.653-17.99,14.644-31.163c7.99,13.173,14.643,26.456,14.643,31.163
	c0,8.074-6.569,14.643-14.643,14.643C113.537,74.287,106.968,67.719,106.968,59.645z M345.653,125.925h27.073v52.438h-27.073
	V125.925z M226.864,125.925h27.073v52.438h-27.073V125.925z M108.075,125.925h27.073v52.438h-27.073V125.925z M45.244,198.362
	h52.831h47.073h71.716h47.073h71.716h47.073h52.831c8.005,0,14.517,6.513,14.517,14.518v29.687
	c-9.228,2.799-14.952,9.169-19.418,14.153c-5.406,6.032-8.281,8.932-14.523,8.932s-9.118-2.899-14.523-8.932
	c-5.894-6.577-13.966-15.585-29.418-15.585c-15.451,0-23.522,9.008-29.416,15.585c-5.405,6.032-8.28,8.932-14.52,8.932
	s-9.116-2.899-14.521-8.932c-5.894-6.577-13.965-15.585-29.416-15.585s-23.521,9.008-29.415,15.585
	c-5.405,6.032-8.28,8.932-14.52,8.932s-9.115-2.899-14.52-8.932c-5.893-6.577-13.964-15.585-29.415-15.585
	c-15.449,0-23.52,9.008-29.413,15.586c-5.404,6.031-8.278,8.931-14.516,8.931c-6.238,0-9.112-2.899-14.516-8.931
	c-5.893-6.578-13.963-15.586-29.412-15.586c-15.451,0-23.522,9.008-29.415,15.585c-5.405,6.032-8.279,8.932-14.519,8.932
	s-9.114-2.899-14.519-8.932c-4.465-4.983-10.188-11.353-19.415-14.152V212.88C30.727,204.875,37.239,198.362,45.244,198.362z
	 M30.727,460.801v-22.167h370.008c5.523,0,10-4.478,10-10s-4.477-10-10-10H30.727v-39.339h370.008c5.523,0,10-4.478,10-10
	s-4.477-10-10-10H30.727v-39.34h370.008c5.523,0,10-4.478,10-10s-4.477-10-10-10H30.727V265.31c1.379,1.283,2.825,2.865,4.519,4.757
	c5.893,6.577,13.964,15.585,29.415,15.585s23.521-9.008,29.415-15.585c5.405-6.032,8.28-8.932,14.52-8.932
	c6.238,0,9.112,2.899,14.516,8.931c5.893,6.578,13.963,15.586,29.412,15.586s23.52-9.008,29.413-15.586
	c5.404-6.031,8.278-8.931,14.516-8.931c6.24,0,9.114,2.899,14.519,8.932c5.894,6.577,13.964,15.585,29.415,15.585
	s23.521-9.008,29.415-15.585c5.405-6.032,8.28-8.932,14.52-8.932c6.24,0,9.116,2.899,14.521,8.932
	c5.894,6.577,13.965,15.585,29.416,15.585s23.522-9.008,29.416-15.585c5.405-6.032,8.28-8.932,14.52-8.932
	c6.242,0,9.118,2.899,14.523,8.933c5.894,6.576,13.966,15.584,29.418,15.584s23.524-9.008,29.418-15.584
	c1.696-1.893,3.143-3.477,4.523-4.76v195.494H30.727z"/>
    </symbol>
</svg>
